<svg width="20" height="20" viewBox="0 0 20 20" fill="none" xmlns="http://www.w3.org/2000/svg">
<path d="M6.04492 9.71924C6.04492 8.90625 5.38574 8.25439 4.55811 8.25439C3.75244 8.25439 3.09326 8.90625 3.09326 9.71924C3.09326 10.5322 3.75244 11.1841 4.55811 11.1841C5.38574 11.1841 6.04492 10.5322 6.04492 9.71924ZM11.4648 9.71924C11.4648 8.90625 10.813 8.25439 10 8.25439C9.19434 8.25439 8.54248 8.90625 8.54248 9.71924C8.54248 10.5322 9.19434 11.1841 10 11.1841C10.813 11.1841 11.4648 10.5322 11.4648 9.71924ZM16.9067 9.71924C16.9067 8.90625 16.2549 8.25439 15.4419 8.25439C14.6143 8.25439 13.9624 8.90625 13.9624 9.71924C13.9624 10.5322 14.6143 11.1841 15.4419 11.1841C16.2549 11.1841 16.9067 10.5322 16.9067 9.71924Z" fill="#9FA2B4"/>
</svg>
