<svg width="16" height="16" viewBox="0 0 16 16" fill="none" xmlns="http://www.w3.org/2000/svg">
<path opacity="1" d="M3.5 5.5999C3.5 6.20626 3.00636 6.6999 2.4 6.6999C1.79364 6.6999 1.3 6.20626 1.3 5.5999C1.3 4.99354 1.79364 4.4999 2.4 4.4999C3.00636 4.4999 3.5 4.99354 3.5 5.5999ZM14.7 5.5999C14.7 6.20626 14.2064 6.6999 13.6 6.6999C12.9936 6.6999 12.5 6.20626 12.5 5.5999C12.5 4.99354 12.9936 4.4999 13.6 4.4999C14.2064 4.4999 14.7 4.99354 14.7 5.5999ZM13.9652 10.6999C13.7563 9.83175 13.2772 9.07414 12.6206 8.51442C12.6789 8.50486 12.7389 8.4999 12.8 8.4999H14.4C15.0064 8.4999 15.5 8.99355 15.5 9.5999V10.3999C15.5 10.5663 15.3664 10.6999 15.2 10.6999H13.9652ZM10.3 5.1999C10.3 6.47126 9.27136 7.4999 8 7.4999C6.72864 7.4999 5.7 6.47126 5.7 5.1999C5.7 3.92854 6.72864 2.8999 8 2.8999C9.27136 2.8999 10.3 3.92854 10.3 5.1999ZM8 9.6999C8.65559 9.6999 9.27003 9.54947 9.82318 9.2999H9.92C11.2339 9.2999 12.3 10.366 12.3 11.6799V12.3999C12.3 12.7863 11.9864 13.0999 11.6 13.0999H4.4C4.01364 13.0999 3.7 12.7863 3.7 12.3999V11.6799C3.7 10.366 4.76614 9.2999 6.08 9.2999H6.17722C6.73149 9.54916 7.34372 9.6999 8 9.6999ZM3.2 8.4999C3.26114 8.4999 3.32106 8.50486 3.37941 8.51442C2.72258 9.07424 2.24326 9.83191 2.033 10.6999H0.8C0.633642 10.6999 0.5 10.5663 0.5 10.3999V9.5999C0.5 8.99355 0.993643 8.4999 1.6 8.4999H3.2Z" fill="#fff" stroke="#fff"/>
</svg>
