<svg width="12" height="12" viewBox="0 0 12 12" fill="none" xmlns="http://www.w3.org/2000/svg">
<path d="M5.99414 11.3535C6.42773 11.3535 6.72656 11.0547 6.72656 10.6094V3.66602L6.67383 2.39453L8.0625 3.96484L9.38672 5.27734C9.52148 5.40625 9.69727 5.49414 9.9082 5.49414C10.3066 5.49414 10.6055 5.20117 10.6055 4.79102C10.6055 4.59766 10.5293 4.41602 10.377 4.26367L6.53906 0.419922C6.39844 0.273438 6.19336 0.191406 5.99414 0.191406C5.79492 0.191406 5.5957 0.273438 5.45508 0.419922L1.61719 4.26367C1.46484 4.41602 1.38867 4.59766 1.38867 4.79102C1.38867 5.20117 1.6875 5.49414 2.08594 5.49414C2.29688 5.49414 2.47266 5.40625 2.60742 5.27734L3.92578 3.96484L5.31445 2.39453L5.26758 3.66602V10.6094C5.26758 11.0547 5.56055 11.3535 5.99414 11.3535Z" fill="#4F5459"/>
</svg>
